<svg xmlns="http://www.w3.org/2000/svg" width="32" height="32">
  <path d="M16 6c5.1 0 7.2.6 8.3 1.7 1.1 1 1.7 3.2 1.7 8.3 0 5.1-.6 7.2-1.7 8.3-1 1.1-3.2 1.7-8.3 1.7s-7.2-.6-8.3-1.7C6.6 23.3 6 21.1 6 16s.6-7.2 1.7-8.3C8.7 6.6 10.9 6 16 6zm12 10C28 6 26 4 16 4S4 6 4 16s2 12 12 12 12-2 12-12z"/>
  <path d="M13.9 8a1.6 1.6 0 0 0-1.5 1 1.6 1.6 0 0 0 0 1.2 1.6 1.6 0 0 0 1.5 1h1.6V9.6a1.6 1.6 0 0 0-1-1.5 1.6 1.6 0 0 0-.6-.1zm0 4.3H9.6a1.6 1.6 0 0 0-1.5 1 1.6 1.6 0 0 0 .4 1.7 1.6 1.6 0 0 0 1.1.5h4.3a1.6 1.6 0 0 0 1.4-1 1.6 1.6 0 0 0-.3-1.8 1.6 1.6 0 0 0-1.1-.4zM24 13.9a1.6 1.6 0 0 0-1-1.5 1.6 1.6 0 0 0-1.7.3 1.6 1.6 0 0 0-.5 1.2v1.6h1.6a1.6 1.6 0 0 0 1.5-1l.1-.6zm-4.3 0V9.6a1.6 1.6 0 0 0-1-1.5 1.6 1.6 0 0 0-1.7.4 1.6 1.6 0 0 0-.5 1.1v4.3a1.6 1.6 0 0 0 1 1.4 1.6 1.6 0 0 0 1.2 0 1.6 1.6 0 0 0 1-1.4zM18.1 24a1.6 1.6 0 0 0 1.6-1.6 1.6 1.6 0 0 0-1-1.5 1.6 1.6 0 0 0-.6-.1h-1.6v1.6a1.6 1.6 0 0 0 1.6 1.6zm0-4.3h4.3a1.6 1.6 0 0 0 1.5-1 1.6 1.6 0 0 0-.4-1.7 1.6 1.6 0 0 0-1.1-.5h-4.3a1.6 1.6 0 0 0-1.4 1 1.6 1.6 0 0 0 .3 1.8 1.6 1.6 0 0 0 1.1.4zM8 18.1a1.6 1.6 0 0 0 1.6 1.6 1.6 1.6 0 0 0 1.5-1l.1-.6v-1.6H9.6a1.6 1.6 0 0 0-1.5 1l-.1.6zm4.3 0v4.3a1.6 1.6 0 0 0 1 1.5 1.6 1.6 0 0 0 1.7-.4 1.6 1.6 0 0 0 .5-1.1v-4.3a1.6 1.6 0 0 0-1.6-1.6 1.6 1.6 0 0 0-1.6 1.6z"/>
</svg>